name GIL12_free4.mot
datacolumns 153
datarows 4
range 0.55000007 0.57500005
endheader

                time	           pelvis_tx	           pelvis_ty	           pelvis_tz	         pelvis_tilt	         pelvis_list	     pelvis_rotation	       hip_flexion_r	     hip_adduction_r	      hip_rotation_r	        knee_angle_r	       ankle_angle_r	    subtalar_angle_r	         mtp_angle_r	       hip_flexion_l	     hip_adduction_l	      hip_rotation_l	        knee_angle_l	       ankle_angle_l	    subtalar_angle_l	         mtp_angle_l	    lumbar_extension	      lumbar_bending	     lumbar_rotation	     ground_force_vx	     ground_force_vy	     ground_force_vz	     ground_force_px	     ground_force_py	     ground_force_pz	     ground_force_vx	     ground_force_vy	     ground_force_vz	     ground_force_px	     ground_force_py	     ground_force_pz	     ground_torque_x	     ground_torque_y	     ground_torque_z	     ground_torque_x	     ground_torque_y	     ground_torque_z	    ground_marker_px	    ground_marker_py	    ground_marker_pz	    ground_marker_px	    ground_marker_py	    ground_marker_pz	    ground_marker_px	    ground_marker_py	    ground_marker_pz	    ground_marker_px	    ground_marker_py	    ground_marker_pz	    ground_marker_px	    ground_marker_py	    ground_marker_pz	    ground_marker_px	    ground_marker_py	    ground_marker_pz	    ground_marker_px	    ground_marker_py	    ground_marker_pz	    ground_marker_px	    ground_marker_py	    ground_marker_pz	    ground_marker_px	    ground_marker_py	    ground_marker_pz	    ground_marker_px	    ground_marker_py	    ground_marker_pz	    ground_marker_px	    ground_marker_py	    ground_marker_pz	    ground_marker_px	    ground_marker_py	    ground_marker_pz	    ground_marker_px	    ground_marker_py	    ground_marker_pz	    ground_marker_px	    ground_marker_py	    ground_marker_pz	    ground_marker_px	    ground_marker_py	    ground_marker_pz	    ground_marker_px	    ground_marker_py	    ground_marker_pz	    ground_marker_px	    ground_marker_py	    ground_marker_pz	    ground_marker_px	    ground_marker_py	    ground_marker_pz	    ground_marker_px	    ground_marker_py	    ground_marker_pz	    ground_marker_px	    ground_marker_py	    ground_marker_pz	    ground_marker_px	    ground_marker_py	    ground_marker_pz	    ground_marker_px	    ground_marker_py	    ground_marker_pz	    ground_marker_px	    ground_marker_py	    ground_marker_pz	    ground_marker_px	    ground_marker_py	    ground_marker_pz	    ground_marker_px	    ground_marker_py	    ground_marker_pz	    ground_marker_px	    ground_marker_py	    ground_marker_pz	    ground_marker_px	    ground_marker_py	    ground_marker_pz	    ground_marker_px	    ground_marker_py	    ground_marker_pz	    ground_marker_px	    ground_marker_py	    ground_marker_pz	    ground_marker_px	    ground_marker_py	    ground_marker_pz	    ground_marker_px	    ground_marker_py	    ground_marker_pz	    ground_marker_px	    ground_marker_py	    ground_marker_pz	    ground_marker_px	    ground_marker_py	    ground_marker_pz	    ground_marker_px	    ground_marker_py	    ground_marker_pz	    ground_marker_px	    ground_marker_py	    ground_marker_pz	    ground_marker_px	    ground_marker_py	    ground_marker_pz	    ground_marker_px	    ground_marker_py	    ground_marker_pz	
          0.55000007	          1.29474902	          0.67197180	         -0.27696684	          6.16434622	         -2.18619275	          0.19695370	         19.40491295	          3.08456206	         -0.06021150	        -22.34724808	         -2.93790889	          0.00000000	          0.00000000	        -25.76353073	         -0.47464457	         -5.17455721	        -24.71957207	        -10.98804951	          0.00000000	          0.00000000	        -22.98987007	          7.08641052	         -4.24198580	        -51.43750368	        273.96423055	        -21.63139953	          1.40768054	          0.00000000	         -0.20815556	         12.36334527	         24.27218488	         -2.18411503	          0.98756879	          0.00000000	         -0.30156888	          0.00000000	          0.20024690	          0.00000000	          0.00000000	         -0.00777240	          0.00000000	          1.24548542	          0.59668505	         -0.26894543	          1.25250793	          0.61115617	         -0.21560439	          1.25165093	          0.60674030	         -0.33296320	          1.38016880	          0.34369281	         -0.22243634	          1.15065658	          0.32321674	         -0.32405356	          1.39656770	          0.05363184	         -0.21495207	          0.94380516	          0.11422417	         -0.33935475	          1.29474902	          0.67197180	         -0.27696684	          1.29539883	          0.67531949	         -0.18799575	          1.29409921	          0.66862404	         -0.36593792	          1.15440094	          0.68816411	         -0.23002180	          1.15652108	          0.68458563	         -0.31519949	          1.38152897	          0.34316757	         -0.17645945	          1.14636230	          0.32324412	         -0.37186107	          1.37310970	          0.34146988	         -0.26123801	          1.15375543	          0.32441479	         -0.27997372	          1.39799011	          0.05457551	         -0.18149559	          0.93737590	          0.12283323	         -0.37002718	          1.40317082	          0.05441779	         -0.24278417	          0.93771732	          0.12182136	         -0.30526131	          1.22193968	          1.00855076	         -0.26566419	          1.30590308	          0.93176311	         -0.21441993	          1.31466985	          0.93708724	         -0.30284104	          1.29532886	          0.94824928	         -0.25180385	          1.33096170	          0.81061029	         -0.26144359	          1.44997835	          0.47655946	         -0.24777985	          1.23337603	          0.38259390	         -0.43375754	          1.36911392	          0.49373204	         -0.19131789	          1.25226998	          0.43448094	         -0.35232401	          1.39509511	          0.40963191	         -0.19256359	          1.22018206	          0.35583240	         -0.33204302	          1.43087113	          0.13505703	         -0.12065002	          1.08634615	          0.12739733	         -0.31455341	          1.40378928	          0.19785018	         -0.17854990	          1.07826066	          0.20921701	         -0.33039808	          1.49079549	          0.04108445	         -0.21330011	          0.97650284	          0.04026746	         -0.32517791	
          0.55833340	          1.30471396	          0.67351878	         -0.27638882	          6.16324806	         -2.28215575	          0.30518898	         18.71309280	          3.20649529	          0.06670198	        -22.88945198	         -1.96301281	          0.00000000	          0.00000000	        -24.29742432	         -0.79188579	         -5.08182859	        -27.63561440	        -15.07797718	          0.00000000	          0.00000000	        -22.88444901	          7.18188477	         -4.17093325	        -48.31556806	        284.10978315	        -20.52876050	          1.40901355	          0.00000000	         -0.20845389	          6.11726459	         11.49123263	         -1.45152660	          0.99139191	          0.00000000	         -0.29864096	          0.00000000	          0.10493008	          0.00000000	          0.00000000	         -0.00209106	          0.00000000	          1.25583386	          0.59825301	         -0.26816267	          1.26259315	          0.61279774	         -0.21485038	          1.26149523	          0.60820889	         -0.33220053	          1.38699985	          0.34371549	         -0.22209243	          1.16765118	          0.32179406	         -0.32429299	          1.39712870	          0.05363719	         -0.21510588	          0.95590836	          0.11833170	         -0.33936337	          1.30471396	          0.67351878	         -0.27638882	          1.30554664	          0.67699897	         -0.18738984	          1.30388117	          0.67003864	         -0.36538780	          1.16473854	          0.68989795	         -0.22900248	          1.16683614	          0.68592685	         -0.31419179	          1.38856030	          0.34319967	         -0.17612182	          1.16336942	          0.32187706	         -0.37210158	          1.37935412	          0.34074804	         -0.25929967	          1.17289209	          0.32167485	         -0.28028226	          1.39843690	          0.05448885	         -0.18164228	          0.94913185	          0.12763526	         -0.36975700	          1.40303004	          0.05427613	         -0.24279846	          0.95131093	          0.12536328	         -0.30537915	          1.23168278	          1.01039481	         -0.26390734	          1.31614530	          0.93373758	         -0.21275514	          1.32464612	          0.93911755	         -0.30114430	          1.30539274	          0.95006353	         -0.25010508	          1.34145570	          0.81267989	         -0.25986484	          1.45879412	          0.47568974	         -0.24793832	          1.24895096	          0.38321280	         -0.43417290	          1.37860978	          0.49365240	         -0.19075394	          1.26848102	          0.43457791	         -0.35230154	          1.40304720	          0.40915287	         -0.19141047	          1.23804379	          0.35497853	         -0.33271998	          1.43278563	          0.13386092	         -0.12055032	          1.09879088	          0.12711181	         -0.31698862	          1.40851414	          0.19775848	         -0.17824361	          1.09353209	          0.20908773	         -0.33174613	          1.49101591	          0.04069506	         -0.21337214	          0.98225141	          0.04177069	         -0.32462052	
          0.56666672	          1.31443572	          0.67511928	         -0.27584437	          6.12251472	         -2.32353902	          0.39076275	         17.98549652	          3.27132487	          0.05123200	        -23.22118759	         -1.05225182	          0.00000000	          0.00000000	        -22.64837646	         -1.05703413	         -5.16207647	        -30.59183884	        -18.80843925	          0.00000000	          0.00000000	        -22.70764732	          7.21356535	         -4.01459503	        -44.82610655	        288.26622975	        -19.79418137	          1.41036035	          0.00000000	         -0.20864722	          1.93963798	          4.98597629	         -0.92193440	          0.99431750	          0.00000000	         -0.29609958	          0.00000000	          0.06574719	          0.00000000	          0.00000000	          0.00523477	          0.00000000	          1.26595688	          0.59986448	         -0.26745600	          1.27236414	          0.61446559	         -0.21420601	          1.27107978	          0.60981125	         -0.33155167	          1.39314353	          0.34367749	         -0.22172704	          1.18520820	          0.32054198	         -0.32471105	          1.39766896	          0.05366656	         -0.21525091	          0.96915758	          0.12250102	         -0.33917946	          1.31443572	          0.67511928	         -0.27584437	          1.31541014	          0.67865038	         -0.18681763	          1.31346142	          0.67158818	         -0.36487111	          1.17492449	          0.69177359	         -0.22794473	          1.17698812	          0.68740952	         -0.31311336	          1.39475560	          0.34311977	         -0.17575870	          1.18079615	          0.32072148	         -0.37250754	          1.38504922	          0.34092551	         -0.25877747	          1.19260991	          0.31844756	         -0.28108734	          1.39874792	          0.05443089	         -0.18177703	          0.96203572	          0.13246977	         -0.36928180	          1.40307903	          0.05411958	         -0.24275376	          0.96570212	          0.12883270	         -0.30513394	          1.24125087	          1.01230228	         -0.26222181	          1.32624280	          0.93585563	         -0.21135403	          1.33436143	          0.94132173	         -0.29974201	          1.31527328	          0.95204329	         -0.24859123	          1.35178900	          0.81491852	         -0.25863162	          1.46709609	          0.47459280	         -0.24769418	          1.26452756	          0.38414848	         -0.43492132	          1.38720679	          0.49369353	         -0.19000153	          1.28369319	          0.43503347	         -0.35290271	          1.41012275	          0.40881220	         -0.19084631	          1.25605667	          0.35445261	         -0.33393112	          1.43412805	          0.13278519	         -0.12036148	          1.11213362	          0.12710415	         -0.31934920	          1.41168535	          0.19749059	         -0.17805648	          1.10951364	          0.20897833	         -0.33308178	          1.49112439	          0.04045417	         -0.21347761	          0.98968935	          0.04389013	         -0.32410124	
          0.57500005	          1.32392371	          0.67676663	         -0.27530172	          6.05198050	         -2.31789184	          0.43818173	         17.23797798	          3.29981256	         -0.06181705	        -23.40031433	         -0.20223022	          0.00000000	          0.00000000	        -20.85048103	         -1.27747607	         -5.47236013	        -33.56406021	        -21.81796455	          0.00000000	          0.00000000	        -22.53109741	          7.17905569	         -3.74631691	        -41.16380286	        287.40812913	        -19.19717578	          1.41200537	          0.00000000	         -0.20875510	          0.00000000	          0.00000000	          0.00000000	          0.99679187	          0.00000000	         -0.29385175	          0.00000000	          0.02301743	          0.00000000	          0.00000000	          0.00000000	          0.00000000	          1.27580035	          0.60151798	         -0.26681092	          1.28182542	          0.61615479	         -0.21364030	          1.28043997	          0.61152363	         -0.33098575	          1.39872646	          0.34363827	         -0.22135435	          1.20325673	          0.31955153	         -0.32529134	          1.39816678	          0.05370884	         -0.21537027	          0.98343176	          0.12676537	         -0.33877578	          1.32392371	          0.67676663	         -0.27530172	          1.32497525	          0.68028140	         -0.18624334	          1.32287216	          0.67325181	         -0.36436012	          1.18491697	          0.69375366	         -0.22693248	          1.18696809	          0.68900436	         -0.31204647	          1.40026963	          0.34299898	         -0.17538469	          1.19853961	          0.31986690	         -0.37305793	          1.39053667	          0.34170708	         -0.25921914	          1.21260142	          0.31562814	         -0.28216764	          1.39897501	          0.05439837	         -0.18188712	          0.97599185	          0.13733447	         -0.36859509	          1.40315139	          0.05402472	         -0.24286263	          0.98015583	          0.13288820	         -0.30447096	          1.25072634	          1.01427746	         -0.26057941	          1.33615327	          0.93803018	         -0.21016973	          1.34376204	          0.94359338	         -0.29854906	          1.32497489	          0.95413667	         -0.24727707	          1.36174667	          0.81720048	         -0.25767484	          1.47492445	          0.47340107	         -0.24712446	          1.27995825	          0.38545367	         -0.43596739	          1.39494514	          0.49388087	         -0.18922956	          1.29883087	          0.43581480	         -0.35386354	          1.41652274	          0.40864405	         -0.19069691	          1.27408755	          0.35433301	         -0.33552036	          1.43514824	          0.13184395	         -0.12012928	          1.12629509	          0.12743893	         -0.32146105	          1.41375256	          0.19710967	         -0.17794654	          1.12593365	          0.20899332	         -0.33424512	          1.49116457	          0.04029959	         -0.21361583	          0.99907899	          0.04662611	         -0.32374647	
